<svg width="293" height="87" xmlns="http://www.w3.org/2000/svg" xmlns:xlink="http://www.w3.org/1999/xlink" overflow="hidden"><defs><clipPath id="clip0"><rect x="397" y="355" width="293" height="87"/></clipPath><clipPath id="clip1"><rect x="410" y="364" width="69" height="69"/></clipPath><clipPath id="clip2"><rect x="410" y="364" width="69" height="69"/></clipPath><clipPath id="clip3"><rect x="410" y="364" width="69" height="69"/></clipPath></defs><g clip-path="url(#clip0)" transform="translate(-397 -355)"><rect x="398.5" y="356.5" width="291" height="85" stroke="#2F528F" stroke-width="1.33333" stroke-miterlimit="8" fill="#F2F2F2" fill-opacity="0.901961"/><g clip-path="url(#clip1)"><g clip-path="url(#clip2)"><g clip-path="url(#clip3)"><path d="M430.125 385.141 437.312 392.329 444.5 385.141 451.688 392.329 458.875 385.141 466.992 393.258 468.008 392.242 458.875 383.109 451.688 390.296 444.5 383.109 437.312 390.296 430.125 383.109 420.992 392.242 422.008 393.258 430.125 385.141Z"/><path d="M430.125 406.704 437.312 413.891 444.5 406.704 451.688 413.891 458.875 406.704 466.992 414.821 468.008 413.804 458.875 404.671 451.688 411.859 444.5 404.671 437.312 411.859 430.125 404.671 420.992 413.804 422.008 414.821 430.125 406.704Z"/></g></g></g><path d="M488.5 368.5 488.5 430" stroke="#44546A" stroke-width="1.33333" stroke-miterlimit="8" fill="none" fill-rule="evenodd"/><text font-family="Verdana Pro,Verdana Pro_MSFontService,sans-serif" font-weight="300" font-size="24" transform="translate(507.48 408)">Nautonomy.AI</text></g></svg>