<svg viewBox="0 0 96 96" xmlns="http://www.w3.org/2000/svg" xmlns:xlink="http://www.w3.org/1999/xlink" id="Icons_Aquarius_M" overflow="hidden"><g id="Icons"><path d="M28 29.414 38 39.414 48 29.414 58 39.414 68 29.414 79.293 40.707 80.707 39.293 68 26.586 58 36.586 48 26.586 38 36.586 28 26.586 15.293 39.293 16.707 40.707 28 29.414Z" stroke-width="0.372093"/><path d="M28 59.414 38 69.414 48 59.414 58 69.414 68 59.414 79.293 70.707 80.707 69.293 68 56.586 58 66.586 48 56.586 38 66.586 28 56.586 15.293 69.293 16.707 70.707 28 59.414Z" stroke-width="0.372093"/></g></svg>