<svg width="2562" height="1572" xmlns="http://www.w3.org/2000/svg" xmlns:xlink="http://www.w3.org/1999/xlink" xml:space="preserve" overflow="hidden"><g transform="translate(-925 -453)"><g><path d="M2155 1237.5C2155 870.507 2452.51 573 2819.5 573 3186.49 573 3484 870.507 3484 1237.5 3484 1604.49 3186.49 1902 2819.5 1902 2452.51 1902 2155 1604.49 2155 1237.5ZM2259.59 1237.5C2259.59 1546.73 2510.27 1797.41 2819.5 1797.41 3128.73 1797.41 3379.41 1546.73 3379.41 1237.5 3379.41 928.271 3128.73 677.592 2819.5 677.592 2510.27 677.592 2259.59 928.271 2259.59 1237.5Z" fill="#A0141C" fill-rule="evenodd" fill-opacity="1"/><rect x="1537" y="458" width="105" height="1567" fill="#4472C4" fill-opacity="1"/><path d="M3262.43 458.481 3347.39 507.63 2469.86 2024.57 2384.9 1975.42Z" fill="#A0141C" fill-rule="nonzero" fill-opacity="1"/><path d="M926 1237.5C926 870.507 1223.51 573 1590.5 573 1957.49 573 2255 870.507 2255 1237.5 2255 1604.49 1957.49 1902 1590.5 1902 1223.51 1902 926 1604.49 926 1237.5ZM1030.59 1237.5C1030.59 1546.73 1281.27 1797.41 1590.5 1797.41 1899.73 1797.41 2150.41 1546.73 2150.41 1237.5 2150.41 928.271 1899.73 677.592 1590.5 677.592 1281.27 677.592 1030.59 928.271 1030.59 1237.5Z" fill="#4472C4" fill-rule="evenodd" fill-opacity="1"/></g></g></svg>