<svg width="1081" height="422" xmlns="http://www.w3.org/2000/svg" xmlns:xlink="http://www.w3.org/1999/xlink" xml:space="preserve" overflow="hidden"><g transform="translate(-1636 -1026)"><g><path d="M1905 1237C1905 1174.04 1956.04 1123 2019 1123 2081.96 1123 2133 1174.04 2133 1237 2133 1299.96 2081.96 1351 2019 1351 1956.04 1351 1905 1299.96 1905 1237ZM1922.94 1237C1922.94 1290.05 1965.95 1333.06 2019 1333.06 2072.05 1333.06 2115.06 1290.05 2115.06 1237 2115.06 1183.95 2072.05 1140.94 2019 1140.94 1965.95 1140.94 1922.94 1183.95 1922.94 1237Z" fill="#A0141C" fill-rule="evenodd" fill-opacity="1"/><rect x="1799" y="1103" width="18.0002" height="269" fill="#2F5597" fill-opacity="1"/><path d="M2094.98 1103.14 2109.56 1111.57 1958.99 1371.86 1944.41 1363.43Z" fill="#A0141C" fill-rule="nonzero" fill-opacity="1"/><path d="M1694 1237C1694 1174.04 1745.04 1123 1808 1123 1870.96 1123 1922 1174.04 1922 1237 1922 1299.96 1870.96 1351 1808 1351 1745.04 1351 1694 1299.96 1694 1237ZM1711.94 1237C1711.94 1290.05 1754.95 1333.06 1808 1333.06 1861.05 1333.06 1904.06 1290.05 1904.06 1237 1904.06 1183.95 1861.05 1140.94 1808 1140.94 1754.95 1140.94 1711.94 1183.95 1711.94 1237Z" fill="#2F5597" fill-rule="evenodd" fill-opacity="1"/><text fill="#000000" fill-opacity="1" font-family="Chakra Petch,Chakra Petch_MSFontService,sans-serif" font-style="normal" font-variant="normal" font-weight="400" font-stretch="normal" font-size="101" text-anchor="start" direction="ltr" writing-mode="lr-tb" unicode-bidi="normal" text-decoration="none" transform="matrix(1 0 0 1 2266.63 1208)">Phase 0</text><text fill="#000000" fill-opacity="1" font-family="Chakra Petch,Chakra Petch_MSFontService,sans-serif" font-style="normal" font-variant="normal" font-weight="400" font-stretch="normal" font-size="101" text-anchor="start" direction="ltr" writing-mode="lr-tb" unicode-bidi="normal" text-decoration="none" transform="matrix(1 0 0 1 2251.16 1329)">Systems</text><path d="M2204.5 1079.5 2204.5 1396.15" stroke="#000000" stroke-width="6.875" stroke-linecap="butt" stroke-linejoin="miter" stroke-miterlimit="8" stroke-opacity="1" fill="none" fill-rule="evenodd"/><path d="M1640.5 1033.5 2702.5 1033.5 2702.5 1442.5 1640.5 1442.5ZM1644.32 1037.32 1644.32 1438.68 2698.68 1438.68 2698.68 1037.32Z" stroke="#172C51" stroke-width="4.58333" stroke-linecap="butt" stroke-linejoin="miter" stroke-miterlimit="8" stroke-opacity="1" fill="#000000" fill-rule="evenodd" fill-opacity="1"/></g></g></svg>